<svg width="544" height="811" viewBox="0 0 544 811" fill="none" xmlns="http://www.w3.org/2000/svg">
<g id="Group 3">
<path id="Vector 9" d="M337.5 411C337.5 438 314.5 470 277 470L277 811L544 411H337.5Z" fill="#67C23A"/>
<path id="Vector 10" d="M206.5 411C206.5 438 229.5 470 267 470L267 811L0 411H206.5Z" fill="#67C23A"/>
<path id="Vector 11" d="M337.5 400C337.5 373 314.5 341 277 341V0L544 400H337.5Z" fill="#67C23A"/>
<path id="Vector 12" d="M207 400C207 373 230 341 267.5 341V0L0.5 400H207Z" fill="#67C23A"/>
<circle id="Ellipse 8" cx="272" cy="405" r="90" fill="white"/>
<circle id="Ellipse 9" cx="272" cy="405" r="43.5" fill="#67C23A" stroke="#67C23A" stroke-width="13"/>
<circle id="Ellipse 10" cx="272" cy="405" r="34.5" fill="black" stroke="black"/>
</g>
</svg>
