<svg width="301" height="338" viewBox="0 0 301 338" fill="none" xmlns="http://www.w3.org/2000/svg">
<path d="M55.6089 300.8C31.4839 279.864 -0.993166 84.922 19.7604 42.7869C40.514 0.651691 244.323 11.1794 262.712 61.3266C281.1 111.474 245.021 293.144 220.095 313.352C195.169 333.561 79.734 321.737 55.6089 300.8Z" fill="white"/>
<path d="M78.4999 303C56.4999 284 16 92.4999 31 48.9999C45.9999 5.4999 221 0.49995 240 48.9999C259 97.4999 240 281 220 303C200 325 100.5 322 78.4999 303Z" fill="black" stroke="black"/>
<path d="M82.9636 297.854C62.1729 279.161 23.8992 90.7621 38.0747 47.9664C52.2501 5.17073 217.63 0.251736 235.586 47.9664C253.542 95.6811 235.586 276.21 216.685 297.854C197.785 319.498 103.754 316.546 82.9636 297.854Z" fill="#63200B" stroke="black"/>
<path d="M75 243.17C83.2641 210.704 95.1397 195.022 121.914 169H176.235C200.195 192.462 213.932 205.035 225 253.257C225 253.257 221.914 284.706 193.519 297.76C165.123 310.814 131.173 312 105.247 297.76C79.321 283.519 75.2168 274.045 75 243.17Z" fill="#F6AE4A"/>
<ellipse cx="144.5" cy="157.5" rx="32.5" ry="65.5" fill="#63200B"/>
<ellipse cx="192.5" cy="165" rx="26.5" ry="12" fill="white"/>
<ellipse cx="189.403" cy="193.809" rx="25" ry="8.5" transform="rotate(18 189.403 193.809)" fill="white"/>
<ellipse cx="173.446" cy="232.074" rx="6" ry="40.5" transform="rotate(-30 173.446 232.074)" fill="white"/>
<ellipse cx="104.629" cy="222.882" rx="6" ry="40.5" transform="rotate(40 104.629 222.882)" fill="white"/>
<path d="M-1.5 54.7654L-10 45.7654C54 -12.7347 191.5 -24.7347 299.5 76.2654L293 91.7653C214.5 5.26528 63.5 10.2653 -1.5 54.7654Z" fill="black" stroke="black"/>
<path d="M53.5729 317.627L43 299.203C129.68 312.773 176.451 313.283 256.452 300.977L244.832 316.668C174.961 335.293 132.947 334.992 53.5729 317.627Z" fill="black" stroke="black"/>
</svg>
